<?xml version="1.0" encoding="utf-8"?>
<!-- Generator: Adobe Illustrator 24.1.3, SVG Export Plug-In . SVG Version: 6.00 Build 0)  -->
<svg version="1.1" id="Layer_1" xmlns="http://www.w3.org/2000/svg" xmlns:xlink="http://www.w3.org/1999/xlink" x="0px" y="0px"
	 viewBox="0 0 76 76" style="enable-background:new 0 0 76 76;" xml:space="preserve">
<style type="text/css">
	.st0{fill:#008AD8;}
</style>
<g id="Group_492" transform="translate(-2346.526 -1234.93)">
	<g id="noun_clock_1579364" transform="translate(2346.526 1234.93)">
		<g id="Group_359">
			<path id="Path_165" class="st0" d="M37.98,75.81c20.69,0,37.47-16.77,37.47-37.47S58.67,0.88,37.98,0.88
				c-20.69,0-37.47,16.77-37.47,37.47C0.51,59.03,17.28,75.81,37.98,75.81C37.98,75.81,37.98,75.81,37.98,75.81z M20.62,10.22
				l2.45,4.24l1.68-0.97L22.3,9.24c4.53-2.44,9.56-3.79,14.71-3.93v9.15h1.94V5.31c5.14,0.14,10.18,1.49,14.71,3.93l-2.45,4.25
				l1.68,0.97l2.45-4.24c4.37,2.71,8.06,6.39,10.76,10.76l-4.24,2.45l0.97,1.68l4.25-2.45c2.44,4.53,3.79,9.56,3.93,14.71h-9.15
				v1.95h9.15c-0.14,5.14-1.49,10.18-3.93,14.71l-4.25-2.45l-0.97,1.68l4.24,2.45c-2.71,4.37-6.39,8.05-10.76,10.76l-2.45-4.24
				l-1.68,0.97l2.45,4.25c-4.53,2.44-9.56,3.79-14.71,3.93v-9.15h-1.94v9.15c-5.14-0.14-10.18-1.49-14.71-3.93l2.45-4.24l-1.68-0.97
				l-2.45,4.24c-4.37-2.71-8.06-6.39-10.76-10.77l4.24-2.45l-0.97-1.68l-4.24,2.45c-2.44-4.53-3.79-9.56-3.93-14.71h9.15v-1.95H4.95
				c0.14-5.14,1.49-10.18,3.93-14.71l4.24,2.45l0.97-1.68l-4.24-2.45C12.56,16.61,16.24,12.92,20.62,10.22z"/>
			<path id="Path_166" class="st0" d="M32.23,40.46l1.08,1.88l4.21-2.42l3.79,2.94l1.82-2.34l-2.82-2.19l19.2-11.01l-1.07-1.88
				L38.45,36.89L23.59,25.37l-1.82,2.34l13.9,10.77L32.23,40.46z"/>
		</g>
	</g>
</g>
</svg>
