<?xml version="1.0" encoding="utf-8"?>
<!-- Generator: Adobe Illustrator 24.1.3, SVG Export Plug-In . SVG Version: 6.00 Build 0)  -->
<svg version="1.1" id="Layer_1" xmlns="http://www.w3.org/2000/svg" xmlns:xlink="http://www.w3.org/1999/xlink" x="0px" y="0px"
	 viewBox="0 0 76 76" style="enable-background:new 0 0 76 76;" xml:space="preserve">
<style type="text/css">
	.st0{fill:#008AD8;}
</style>
<g id="noun_Location_3135900" transform="translate(0 0)">
	<g id="Group_373" transform="translate(0 0)">
		<g id="Group_372">
			<path id="Path_173" class="st0" d="M37.98,14.23c-7.6,0-13.76,6.16-13.76,13.76s6.16,13.76,13.76,13.76s13.76-6.16,13.76-13.76
				l0,0C51.72,20.4,45.57,14.25,37.98,14.23z M37.98,38.34c-5.72,0-10.36-4.64-10.36-10.36s4.64-10.36,10.36-10.36
				s10.36,4.64,10.36,10.36v0C48.33,33.71,43.7,38.34,37.98,38.34z M37.98,0.47C22.78,0.48,10.47,12.79,10.46,27.99
				c0,22.41,27.52,48.23,27.52,48.23S65.49,50.4,65.49,27.99C65.49,12.79,53.17,0.48,37.98,0.47z M37.98,71.04
				c0,0-24.12-22.42-24.12-43.05c0-13.32,10.8-24.12,24.12-24.12s24.12,10.8,24.12,24.12C62.09,48.7,37.98,71.04,37.98,71.04z"/>
		</g>
	</g>
</g>
</svg>
