<?xml version="1.0" encoding="utf-8"?>
<!-- Generator: Adobe Illustrator 24.1.3, SVG Export Plug-In . SVG Version: 6.00 Build 0)  -->
<svg version="1.1" id="Layer_1" xmlns="http://www.w3.org/2000/svg" xmlns:xlink="http://www.w3.org/1999/xlink" x="0px" y="0px"
	 viewBox="0 0 76 76" style="enable-background:new 0 0 76 76;" xml:space="preserve">
<style type="text/css">
	.st0{fill:#008AD8;}
</style>
<g id="Group_361" transform="translate(0 0)">
	<g id="Group_360" transform="translate(0)">
		<path id="Path_167" class="st0" d="M55.4,7.31v62.02c0,0.04,0,0.08,0,0.12c0,0.11-0.01,0.22-0.02,0.33
			c-0.03,0.36,0.04-0.21-0.01,0.14c-0.04,0.21-0.08,0.43-0.15,0.63c-0.03,0.1-0.07,0.2-0.1,0.31c-0.05,0.12-0.05,0.13,0,0.03
			c-0.03,0.07-0.06,0.13-0.09,0.19c-0.09,0.19-0.2,0.37-0.31,0.55c-0.06,0.09-0.12,0.18-0.18,0.26c0.13-0.19-0.07,0.09-0.08,0.1
			c-0.14,0.16-0.28,0.31-0.43,0.45c-0.08,0.07-0.16,0.14-0.24,0.21c-0.1,0.08-0.11,0.09-0.02,0.02c-0.06,0.04-0.11,0.08-0.17,0.12
			c-0.18,0.12-0.36,0.22-0.55,0.32c-0.09,0.05-0.19,0.09-0.29,0.14c0.21-0.1-0.11,0.04-0.13,0.04c-0.2,0.07-0.41,0.13-0.62,0.17
			c-0.11,0.02-0.21,0.04-0.32,0.06c0.22-0.04-0.21,0.01-0.25,0.01c-0.13,0.01-0.26,0-0.39,0H24.78c-0.1,0-0.13,0-0.23,0
			c-0.04,0-0.48-0.04-0.25-0.01c-0.22-0.03-0.43-0.08-0.64-0.13c-0.1-0.03-0.21-0.06-0.31-0.1c-0.02,0-0.34-0.13-0.13-0.04
			c-0.19-0.08-0.38-0.18-0.57-0.29c-0.09-0.05-0.18-0.11-0.27-0.17c-0.06-0.04-0.12-0.08-0.17-0.12c0.09,0.07,0.08,0.07-0.02-0.02
			c-0.16-0.13-0.32-0.28-0.46-0.43c-0.07-0.07-0.14-0.15-0.21-0.23c-0.01-0.01-0.22-0.29-0.08-0.1c-0.12-0.17-0.24-0.35-0.34-0.53
			c-0.05-0.09-0.1-0.19-0.15-0.28c-0.03-0.07-0.06-0.13-0.09-0.19c0.05,0.11,0.05,0.1,0-0.03c-0.07-0.2-0.14-0.41-0.18-0.62
			c-0.03-0.11-0.04-0.21-0.06-0.32c-0.06-0.35,0.02,0.22-0.01-0.14c-0.01-0.15-0.02-0.31-0.02-0.46V7.6c0-0.25,0-0.49,0.02-0.73
			c0.03-0.36-0.04,0.22,0.01-0.14c0.02-0.11,0.04-0.21,0.06-0.32c0.05-0.21,0.11-0.42,0.18-0.62c0.12-0.33-0.09,0.19,0.05-0.12
			c0.04-0.1,0.09-0.19,0.14-0.28c0.12-0.22,0.25-0.43,0.39-0.62c-0.13,0.19,0.07-0.09,0.08-0.1c0.07-0.08,0.14-0.16,0.21-0.23
			c0.15-0.15,0.3-0.29,0.46-0.43c0.26-0.22-0.17,0.12,0.11-0.08c0.09-0.06,0.18-0.12,0.26-0.17c0.21-0.13,0.43-0.24,0.66-0.34
			c-0.21,0.1,0.11-0.03,0.13-0.04c0.1-0.04,0.2-0.07,0.31-0.09c0.21-0.06,0.42-0.1,0.64-0.13c-0.24,0.04,0.12,0,0.14-0.01
			c0.11-0.01,0.22-0.01,0.34-0.01H51.1c0.85-0.03,1.7,0.21,2.41,0.68c0.28,0.17,0.53,0.38,0.74,0.62c0.07,0.07,0.14,0.15,0.21,0.23
			c0.01,0.01,0.22,0.28,0.08,0.1c0.12,0.17,0.24,0.35,0.34,0.53c0.09,0.15,0.16,0.31,0.24,0.47c-0.1-0.21,0.04,0.11,0.04,0.13
			c0.04,0.1,0.07,0.2,0.1,0.31c0.06,0.21,0.1,0.42,0.13,0.64c-0.04-0.24,0,0.12,0.01,0.14C55.4,7.09,55.4,7.2,55.4,7.31
			c0,0.62,0.51,1.13,1.13,1.13c0.62,0,1.13-0.51,1.13-1.13c-0.04-3.58-2.96-6.45-6.53-6.45H25c-1.07-0.01-2.13,0.22-3.1,0.68
			c-2.24,1.14-3.62,3.47-3.56,5.98V69.3c0.02,3.56,2.89,6.44,6.45,6.48h24.05c1.19,0.05,2.38,0.02,3.56-0.11
			c3.07-0.59,5.28-3.29,5.26-6.42V7.31c0-0.62-0.51-1.13-1.13-1.13C55.91,6.19,55.41,6.69,55.4,7.31L55.4,7.31z"/>
	</g>
</g>
<g id="Group_363" transform="translate(0 12.141)">
	<g id="Group_362">
		<path id="Path_168" class="st0" d="M19.46,3.12h37.07c0.62,0,1.13-0.51,1.13-1.13c0-0.62-0.51-1.13-1.13-1.13H19.46
			c-0.62,0-1.13,0.51-1.13,1.13C18.33,2.61,18.84,3.12,19.46,3.12L19.46,3.12z"/>
	</g>
</g>
<g id="Group_365" transform="translate(0 60.224)">
	<g id="Group_364" transform="translate(0)">
		<path id="Path_169" class="st0" d="M56.53,0.86H19.46c-0.62,0-1.13,0.51-1.13,1.13c0,0.62,0.51,1.13,1.13,1.13h37.07
			c0.62,0,1.13-0.51,1.13-1.13C57.66,1.36,57.16,0.86,56.53,0.86L56.53,0.86z"/>
	</g>
</g>
<g id="Group_367" transform="translate(11.373 6.02)">
	<g id="Group_366" transform="translate(0)">
		<path id="Path_170" class="st0" d="M19.46,3.12c0.62,0,1.13-0.51,1.13-1.13c0-0.62-0.51-1.13-1.13-1.13
			c-0.62,0-1.13,0.51-1.13,1.13v0C18.34,2.61,18.84,3.11,19.46,3.12z"/>
	</g>
</g>
<g id="Group_369" transform="translate(15.873 6.02)">
	<g id="Group_368">
		<path id="Path_171" class="st0" d="M19.46,3.12h5.32c0.62,0,1.13-0.51,1.13-1.13c0-0.62-0.51-1.13-1.13-1.13h-5.32
			c-0.62,0-1.13,0.51-1.13,1.13S18.84,3.12,19.46,3.12z"/>
	</g>
</g>
<g id="Group_371" transform="translate(15.913 63.809)">
	<g id="Group_370" transform="translate(0)">
		<path id="Path_172" class="st0" d="M23.58,4.61c-0.01,0.38-0.15,0.74-0.4,1.02c-0.03,0.03-0.34,0.29-0.16,0.16
			C22.9,5.86,22.78,5.93,22.66,6c0.2-0.1-0.17,0.05-0.22,0.07c-0.07,0.02-0.14,0.03-0.21,0.04c0.24-0.04-0.11,0-0.14,0
			c-0.07,0-0.15,0-0.22-0.01c0.12,0.02,0.11,0.02-0.02-0.01c-0.14-0.03-0.27-0.07-0.41-0.12c0.21,0.08-0.15-0.1-0.19-0.12
			c-0.11-0.08-0.11-0.08-0.02-0.01c-0.05-0.04-0.1-0.09-0.15-0.14c-0.04-0.03-0.29-0.34-0.16-0.16c-0.08-0.11-0.15-0.23-0.21-0.36
			c0.1,0.2-0.05-0.17-0.07-0.22c-0.02-0.07-0.03-0.14-0.04-0.21c0.05,0.24,0-0.11,0-0.14c0-0.07,0-0.15,0.01-0.22
			c-0.02,0.12-0.02,0.11,0.01-0.02c0.03-0.14,0.07-0.27,0.12-0.41c-0.08,0.21,0.1-0.15,0.12-0.19c0.08-0.11,0.08-0.11,0.01-0.02
			c0.04-0.05,0.09-0.1,0.14-0.15c0.03-0.03,0.34-0.29,0.16-0.16c0.11-0.08,0.23-0.15,0.36-0.21c-0.2,0.1,0.17-0.05,0.22-0.07
			c0.07-0.02,0.14-0.03,0.21-0.04c-0.24,0.04,0.11,0,0.14,0c0.07,0,0.15,0,0.22,0.01c-0.12-0.02-0.11-0.02,0.02,0.01
			c0.14,0.03,0.27,0.07,0.41,0.12c-0.21-0.08,0.15,0.1,0.19,0.12c0.11,0.08,0.11,0.08,0.02,0.01c0.05,0.04,0.1,0.09,0.15,0.14
			c0.04,0.03,0.29,0.34,0.16,0.16c0.08,0.11,0.15,0.23,0.21,0.36c-0.1-0.2,0.05,0.17,0.07,0.22c0.02,0.07,0.03,0.14,0.04,0.21
			C23.53,4.23,23.58,4.58,23.58,4.61c0,0.62,0.51,1.13,1.13,1.13c0.62,0,1.13-0.51,1.13-1.13c0-2.07-1.68-3.75-3.75-3.75
			s-3.75,1.68-3.75,3.75c0,2.07,1.68,3.75,3.75,3.75c2.06-0.03,3.72-1.69,3.75-3.75c0-0.62-0.51-1.13-1.13-1.13
			C24.08,3.48,23.58,3.98,23.58,4.61L23.58,4.61L23.58,4.61z"/>
	</g>
</g>
</svg>
